<svg width="216" height="45" viewBox="0 0 216 45" fill="none" xmlns="http://www.w3.org/2000/svg">
<path d="M89.84 15.92L79.88 44H71.32L61.36 15.92H68.64L75.6 37.12L82.6 15.92H89.84ZM99.5388 25.4C100.339 24.1733 101.339 23.2133 102.539 22.52C103.739 21.8 105.072 21.44 106.539 21.44V28.68H104.659C102.952 28.68 101.672 29.0533 100.819 29.8C99.9654 30.52 99.5388 31.8 99.5388 33.64V44H92.6988V21.68H99.5388V25.4ZM119.968 44.32C117.781 44.32 115.808 43.8533 114.048 42.92C112.315 41.9867 110.941 40.6533 109.928 38.92C108.941 37.1867 108.448 35.16 108.448 32.84C108.448 30.5467 108.955 28.5333 109.968 26.8C110.981 25.04 112.368 23.6933 114.128 22.76C115.888 21.8267 117.861 21.36 120.048 21.36C122.235 21.36 124.208 21.8267 125.968 22.76C127.728 23.6933 129.115 25.04 130.128 26.8C131.141 28.5333 131.648 30.5467 131.648 32.84C131.648 35.1333 131.128 37.16 130.088 38.92C129.075 40.6533 127.675 41.9867 125.888 42.92C124.128 43.8533 122.155 44.32 119.968 44.32ZM119.968 38.4C121.275 38.4 122.381 37.92 123.288 36.96C124.221 36 124.688 34.6267 124.688 32.84C124.688 31.0533 124.235 29.68 123.328 28.72C122.448 27.76 121.355 27.28 120.048 27.28C118.715 27.28 117.608 27.76 116.728 28.72C115.848 29.6533 115.408 31.0267 115.408 32.84C115.408 34.6267 115.835 36 116.688 36.96C117.568 37.92 118.661 38.4 119.968 38.4ZM145.437 44.32C143.25 44.32 141.277 43.8533 139.517 42.92C137.784 41.9867 136.41 40.6533 135.397 38.92C134.41 37.1867 133.917 35.16 133.917 32.84C133.917 30.5467 134.424 28.5333 135.437 26.8C136.45 25.04 137.837 23.6933 139.597 22.76C141.357 21.8267 143.33 21.36 145.517 21.36C147.704 21.36 149.677 21.8267 151.437 22.76C153.197 23.6933 154.584 25.04 155.597 26.8C156.61 28.5333 157.117 30.5467 157.117 32.84C157.117 35.1333 156.597 37.16 155.557 38.92C154.544 40.6533 153.144 41.9867 151.357 42.92C149.597 43.8533 147.624 44.32 145.437 44.32ZM145.437 38.4C146.744 38.4 147.85 37.92 148.757 36.96C149.69 36 150.157 34.6267 150.157 32.84C150.157 31.0533 149.704 29.68 148.797 28.72C147.917 27.76 146.824 27.28 145.517 27.28C144.184 27.28 143.077 27.76 142.197 28.72C141.317 29.6533 140.877 31.0267 140.877 32.84C140.877 34.6267 141.304 36 142.157 36.96C143.037 37.92 144.13 38.4 145.437 38.4ZM189.226 21.44C191.999 21.44 194.199 22.28 195.826 23.96C197.479 25.64 198.306 27.9733 198.306 30.96V44H191.506V31.88C191.506 30.44 191.119 29.3333 190.346 28.56C189.599 27.76 188.559 27.36 187.226 27.36C185.892 27.36 184.839 27.76 184.066 28.56C183.319 29.3333 182.946 30.44 182.946 31.88V44H176.146V31.88C176.146 30.44 175.759 29.3333 174.986 28.56C174.239 27.76 173.199 27.36 171.866 27.36C170.532 27.36 169.479 27.76 168.706 28.56C167.959 29.3333 167.586 30.44 167.586 31.88V44H160.746V21.68H167.586V24.48C168.279 23.5467 169.186 22.8133 170.306 22.28C171.426 21.72 172.692 21.44 174.106 21.44C175.786 21.44 177.279 21.8 178.586 22.52C179.919 23.24 180.959 24.2667 181.706 25.6C182.479 24.3733 183.532 23.3733 184.866 22.6C186.199 21.8267 187.652 21.44 189.226 21.44Z" fill="#3B82F6"/>
<path d="M45.9617 20.8176C45.9343 20.692 45.8942 20.5695 45.8419 20.4519L41.3161 9.98287C40.2728 7.56394 37.7344 6 34.8462 6H11.1538C8.26803 6 5.72725 7.56394 4.68507 9.98287L0.154547 20.4519C0.0515823 20.688 -0.00102881 20.9427 1.52398e-05 21.2V42.1C1.52398e-05 42.6039 0.201949 43.0872 0.561394 43.4435C0.920839 43.7998 1.40835 44 1.91668 44H5.75001C6.25834 44 6.74586 43.7998 7.1053 43.4435C7.46474 43.0872 7.66668 42.6039 7.66668 42.1V40.2H38.3333V42.1C38.3333 42.6039 38.5353 43.0872 38.8947 43.4435C39.2542 43.7998 39.7417 44 40.25 44H44.0833C44.5917 44 45.0792 43.7998 45.4386 43.4435C45.7981 43.0872 46 42.6039 46 42.1V21.2C46.0002 21.0716 45.9873 20.9435 45.9617 20.8176ZM9.58335 32.6C8.82518 32.6 8.08405 32.3771 7.45366 31.9596C6.82327 31.542 6.33194 30.9486 6.04181 30.2542C5.75167 29.5598 5.67576 28.7958 5.82367 28.0587C5.97158 27.3215 6.33667 26.6444 6.87277 26.113C7.40887 25.5816 8.09191 25.2196 8.8355 25.073C9.57909 24.9264 10.3498 25.0016 11.0503 25.2893C11.7507 25.5769 12.3494 26.0639 12.7706 26.6888C13.1919 27.3137 13.4167 28.0484 13.4167 28.8C13.4167 29.8078 13.0128 30.7744 12.2939 31.487C11.575 32.1996 10.6 32.6 9.58335 32.6ZM36.4167 32.6C35.6585 32.6 34.9174 32.3771 34.287 31.9596C33.6566 31.542 33.1653 30.9486 32.8751 30.2542C32.585 29.5598 32.5091 28.7958 32.657 28.0587C32.8049 27.3215 33.17 26.6444 33.7061 26.113C34.2422 25.5816 34.9252 25.2196 35.6688 25.073C36.4124 24.9264 37.1832 25.0016 37.8836 25.2893C38.5841 25.5769 39.1828 26.0639 39.604 26.6888C40.0252 27.3137 40.25 28.0484 40.25 28.8C40.25 29.8078 39.8461 30.7744 39.1272 31.487C38.4084 32.1996 37.4333 32.6 36.4167 32.6ZM4.82283 19.3L8.20454 11.4803C8.63819 10.4757 9.82293 9.8 11.1538 9.8H34.8462C36.1759 9.8 37.3618 10.4757 37.7955 11.4803L41.1772 19.3H4.82283Z" fill="#3B82F6"/>
</svg>
